<svg width="41" height="40" viewBox="0 0 41 40" fill="none" xmlns="http://www.w3.org/2000/svg">
<path d="M1.19828 37.0369C1.24154 37.5127 1.41457 37.9886 1.71738 38.3346C2.14996 38.8105 2.79883 39.07 3.4477 38.9835C4.09657 38.897 4.65893 38.5077 5.04825 37.9021C5.39431 37.2964 6.08644 37.0802 7.16789 37.2099C7.38419 37.2532 7.64373 37.2532 7.86002 37.2532C11.0611 37.383 12.7482 35.5661 13.224 35.0038C14.6515 33.2302 15.2572 30.9808 14.8678 28.9909C14.9976 28.7746 15.0841 28.5151 15.1706 28.2555C15.733 28.342 16.2953 28.169 16.7279 27.7797L38.0109 9.39501C39.9575 7.57817 40.0873 4.50685 38.2704 2.56023C37.4053 1.60856 36.2373 1.08946 34.9396 1.00294C33.6418 0.95969 32.3873 1.39227 31.3924 2.30069L11.4504 22.1129C11.0179 22.5455 10.8016 23.1511 10.8448 23.7567C10.369 23.8432 9.93641 24.0162 9.54709 24.2758C7.34093 24.1027 5.13477 25.0977 3.57748 26.9145C3.36119 27.1308 3.18815 27.3904 3.01512 27.6932C2.97186 27.7797 2.92861 27.8229 2.88535 27.9095C2.71232 28.2123 2.53928 28.5583 2.36625 28.8611L2.323 28.9476C0.895478 32.192 1.19828 36.5611 1.19828 37.0369ZM10.7151 26.655C10.7151 26.6117 10.8016 26.5252 10.9746 26.3089C11.0179 26.2656 11.0611 26.2224 11.1909 26.1359L12.7482 27.8229C12.6617 27.9095 12.5319 28.0392 12.4454 28.0825L12.0993 28.2555L12.2723 28.6016C12.878 30.0291 12.4886 31.9757 11.2774 33.4897C11.0611 33.7493 9.8499 35.0903 7.4707 34.7875C7.25441 34.7442 7.03812 34.7442 6.86509 34.7442C5.52409 34.701 4.39938 35.047 3.62074 35.8257C3.62074 34.3982 3.75051 31.8892 4.61567 29.9858L4.65893 29.9426C4.74545 29.683 4.87522 29.4667 5.00499 29.2504C5.04825 29.2072 5.04825 29.1639 5.09151 29.1207C5.22128 28.9044 5.35106 28.7314 5.48083 28.5583C6.47577 27.3904 7.90328 26.6982 9.28754 26.7847C9.59035 26.7847 9.89315 26.8713 10.196 26.9578L10.542 26.9578L10.7151 26.655ZM13.4403 23.6269L33.0795 4.11752C33.5553 3.68494 34.1609 3.46865 34.8098 3.46865C35.4587 3.51191 36.021 3.77146 36.4536 4.2473C37.362 5.19898 37.3188 6.71301 36.3671 7.57817L15.3437 25.7033L13.4403 23.6269Z" fill="black" stroke="black"/>
</svg>
