<svg width="36" height="46" viewBox="0 0 36 46" fill="none" xmlns="http://www.w3.org/2000/svg">
<path d="M34.5787 19.64C34.3424 19.0971 33.6677 18.1861 31.7977 18.1861L21.5792 18.1841L25.7871 4.68109C26.0474 3.84499 26.7406 1.62438 25.2567 0.762303C24.9865 0.603973 24.6918 0.52356 24.3816 0.52356C23.3243 0.52356 22.3318 1.44057 21.5866 2.23972L1.8928 23.3361C0.616667 24.7041 0.821947 25.8199 1.05769 26.3613C1.29394 26.9047 1.96871 27.8157 3.83871 27.8157L14.0577 27.8177L9.85025 41.3192C9.58953 42.1558 8.89677 44.376 10.3807 45.2385C10.6499 45.3959 10.9441 45.4763 11.2532 45.4763C12.3141 45.4763 13.305 44.5598 14.0502 43.7606L33.7436 22.6658C35.0192 21.2982 34.8144 20.1829 34.5787 19.64ZM31.8611 20.9087L12.416 41.7403L16.6445 28.1709C16.8707 27.4451 16.7598 26.7034 16.3423 26.1371C15.9242 25.5682 15.2494 25.2415 14.4898 25.2415H3.83921C3.76978 25.2415 3.70685 25.2395 3.65091 25.2355C3.68587 25.1916 3.72633 25.1441 3.77477 25.0932L23.2204 4.26055L18.9924 17.8315C18.7662 18.5572 18.8771 19.2989 19.2941 19.8658C19.7122 20.4347 20.3869 20.7608 21.1466 20.7608H31.7957C31.8656 20.7608 31.928 20.7633 31.984 20.7668C31.95 20.8103 31.9096 20.8577 31.8611 20.9087Z" fill="black" stroke="black" stroke-width="0.649131"/>
</svg>
