<svg width="45" height="30" viewBox="0 0 45 30" fill="none" xmlns="http://www.w3.org/2000/svg">
<path d="M2.00992 8.90884H43.5286V15.2155H2.00992V8.90884Z" fill="black"/>
<path d="M40.0284 0.5H5.42601C4.24167 0.501391 3.10623 0.972488 2.26876 1.80995C1.4313 2.64741 0.960207 3.78285 0.958817 4.9672V25.0328C0.960207 26.2171 1.4313 27.3526 2.26876 28.1901C3.10623 29.0275 4.24167 29.4986 5.42601 29.5H40.0284C41.2128 29.4986 42.3482 29.0275 43.1857 28.1901C44.0231 27.3526 44.4942 26.2171 44.4956 25.0328V4.9672C44.4942 3.78285 44.0231 2.64741 43.1857 1.80995C42.3482 0.972488 41.2128 0.501391 40.0284 0.5ZM5.42601 3.12776H40.0284C40.5163 3.12776 40.9841 3.32156 41.3291 3.66652C41.674 4.01148 41.8678 4.47935 41.8678 4.9672V8.05745H3.58658V4.9672C3.58658 4.47935 3.78038 4.01148 4.12534 3.66652C4.4703 3.32156 4.93817 3.12776 5.42601 3.12776ZM41.8678 13.6861H3.58658V10.6852H41.8678V13.6861ZM40.0284 26.8722H5.42601C4.93817 26.8722 4.4703 26.6784 4.12534 26.3335C3.78038 25.9885 3.58658 25.5206 3.58658 25.0328V16.3139H41.8678V25.0328C41.8678 25.5206 41.674 25.9885 41.3291 26.3335C40.9841 26.6784 40.5163 26.8722 40.0284 26.8722ZM38.4517 21.5904C38.4517 21.9389 38.3133 22.2731 38.0669 22.5195C37.8205 22.7659 37.4863 22.9043 37.1379 22.9043H30.3582C30.0098 22.9043 29.6756 22.7659 29.4292 22.5195C29.1828 22.2731 29.0444 21.9389 29.0444 21.5904C29.0444 21.242 29.1828 20.9078 29.4292 20.6614C29.6756 20.415 30.0098 20.2766 30.3582 20.2766H37.1168C37.4653 20.2766 37.7995 20.415 38.0459 20.6614C38.2923 20.9078 38.4307 21.242 38.4307 21.5904H38.4517Z" fill="black"/>
</svg>
