<svg width="777" height="777" viewBox="0 0 777 777" fill="none" xmlns="http://www.w3.org/2000/svg">
<rect width="777" height="777" rx="200" fill="white"/>
<circle cx="388.152" cy="387.699" r="143.169" fill="#0A0A0A"/>
<path fill-rule="evenodd" clip-rule="evenodd" d="M388.152 633.728C523.262 633.728 632.791 524.199 632.791 389.089C632.791 253.979 523.262 144.45 388.152 144.45C253.042 144.45 143.513 253.979 143.513 389.089C143.513 524.199 253.042 633.728 388.152 633.728ZM388.153 585.924C496.862 585.924 584.988 497.798 584.988 389.089C584.988 280.379 496.862 192.253 388.153 192.253C279.443 192.253 191.317 280.379 191.317 389.089C191.317 497.798 279.443 585.924 388.153 585.924Z" fill="#0A0A0A"/>
<path fill-rule="evenodd" clip-rule="evenodd" d="M466.805 340.79C471.405 345.402 473.988 351.657 473.988 358.18V431.958C473.988 435.188 473.354 438.386 472.122 441.369C470.889 444.353 469.083 447.064 466.805 449.348C464.528 451.631 461.825 453.443 458.849 454.679C455.874 455.915 452.685 456.551 449.464 456.551H326.841C323.621 456.551 320.432 455.915 317.456 454.679C314.481 453.443 311.777 451.631 309.5 449.348C307.223 447.064 305.416 444.353 304.184 441.369C302.951 438.386 302.317 435.188 302.317 431.958V358.18C302.317 351.657 304.901 345.402 309.5 340.79C314.099 336.178 320.337 333.587 326.841 333.587H355.927V326.012C355.927 320.794 357.995 315.79 361.674 312.101C365.353 308.411 370.344 306.338 375.547 306.338H400.758C405.962 306.338 410.952 308.411 414.631 312.101C418.311 315.79 420.378 320.794 420.378 326.012V333.587H449.464C455.968 333.587 462.206 336.178 466.805 340.79ZM368.611 319.056C366.771 320.901 365.737 323.403 365.737 326.012V333.587H410.568V326.012C410.568 323.403 409.535 320.901 407.695 319.056C405.855 317.212 403.36 316.175 400.758 316.175H375.547C372.945 316.175 370.45 317.212 368.611 319.056Z" fill="#F4CE14"/>
<path fill-rule="evenodd" clip-rule="evenodd" d="M466.805 340.79C466.805 340.79 473.988 346.78 473.988 358.18V431.958C473.988 435.188 473.354 438.386 472.122 441.369C470.889 444.353 469.083 447.064 466.805 449.348C464.528 451.631 461.825 453.443 458.849 454.679C455.874 455.915 452.685 456.551 449.464 456.551H326.841C323.621 456.551 320.432 455.915 317.456 454.679C312.361 452.563 309.5 449.348 309.5 449.348L466.805 340.79Z" fill="#F49A14"/>
<path d="M387.983 31.3348V225.509C387.983 225.509 375.946 225.311 367.327 226.542C358.707 227.773 345.637 230.673 345.637 230.673L387.983 31.3348Z" fill="#F4CE14"/>
<path d="M387.983 31.3348V225.509C387.983 225.509 400.02 225.311 408.639 226.542C417.259 227.773 430.329 230.673 430.329 230.673L387.983 31.3348Z" fill="#F49A14"/>
<path d="M389.017 746.149V551.975C389.017 551.975 376.98 552.174 368.361 550.942C359.741 549.711 346.671 546.811 346.671 546.811L389.017 746.149Z" fill="#F4CE14"/>
<path d="M389.018 746.15V551.975C389.018 551.975 401.055 552.174 409.675 550.942C418.294 549.711 431.365 546.811 431.365 546.811L389.018 746.15Z" fill="#F49A14"/>
<path d="M30.0598 388.225L224.234 388.225C224.234 388.225 224.036 376.188 225.267 367.568C226.498 358.949 229.398 345.879 229.398 345.879L30.0598 388.225Z" fill="#F4CE14"/>
<path d="M30.0598 388.226L224.234 388.226C224.234 388.226 224.036 400.263 225.267 408.883C226.498 417.502 229.398 430.572 229.398 430.572L30.0598 388.226Z" fill="#F49A14"/>
<path d="M746.942 388.226L552.767 388.226C552.767 388.226 552.966 376.188 551.734 367.569C550.503 358.949 547.603 345.879 547.603 345.879L746.942 388.226Z" fill="#F4CE14"/>
<path d="M746.941 388.226L552.767 388.226C552.767 388.226 552.965 400.263 551.734 408.883C550.502 417.502 547.602 430.572 547.602 430.572L746.941 388.226Z" fill="#F49A14"/>
<path d="M607.126 169.991L492.89 284.227C492.89 284.227 485.925 277.029 480.13 272.682C474.334 268.336 464.939 262.353 464.939 262.353L607.126 169.991Z" fill="#F4CE14"/>
<path d="M607.126 169.991L492.89 284.228C492.89 284.228 500.089 291.192 504.435 296.988C508.782 302.783 514.765 312.179 514.765 312.179L607.126 169.991Z" fill="#F49A14"/>
<path d="M170.358 607.493L284.594 493.257C284.594 493.257 277.396 486.292 273.049 480.496C268.702 474.701 262.719 465.305 262.719 465.305L170.358 607.493Z" fill="#F4CE14"/>
<path d="M170.357 607.492L284.593 493.256C284.593 493.256 291.558 500.455 297.354 504.801C303.149 509.148 312.545 515.131 312.545 515.131L170.357 607.492Z" fill="#F49A14"/>
<path d="M169.751 169.384L283.987 283.62C283.987 283.62 290.952 276.422 296.748 272.075C302.543 267.728 311.939 261.745 311.939 261.745L169.751 169.384Z" fill="#F4CE14"/>
<path d="M169.751 169.384L283.987 283.62C283.987 283.62 276.788 290.585 272.442 296.38C268.095 302.176 262.112 311.571 262.112 311.571L169.751 169.384Z" fill="#F49A14"/>
<path d="M607.733 607.492L493.497 493.256C493.497 493.256 500.695 486.291 505.042 480.496C509.388 474.7 515.371 465.305 515.371 465.305L607.733 607.492Z" fill="#F4CE14"/>
<path d="M607.732 607.492L493.496 493.256C493.496 493.256 486.531 500.455 480.736 504.801C474.94 509.148 465.545 515.131 465.545 515.131L607.732 607.492Z" fill="#F49A14"/>
<path fill-rule="evenodd" clip-rule="evenodd" d="M388.152 561.448C483.343 561.448 560.511 484.28 560.511 389.089C560.511 293.898 483.343 216.73 388.152 216.73C292.961 216.73 215.793 293.898 215.793 389.089C215.793 484.28 292.961 561.448 388.152 561.448ZM388.151 527.769C464.742 527.769 526.831 465.68 526.831 389.089C526.831 312.498 464.742 250.409 388.151 250.409C311.561 250.409 249.472 312.498 249.472 389.089C249.472 465.68 311.561 527.769 388.151 527.769Z" fill="url(#paint0_linear_70_324)"/>
<defs>
<linearGradient id="paint0_linear_70_324" x1="244.519" y1="241.494" x2="538.718" y2="561.448" gradientUnits="userSpaceOnUse">
<stop stop-color="#F4CE14"/>
<stop offset="1" stop-color="#F49A14"/>
</linearGradient>
</defs>
</svg>
