<svg width="186" height="87" viewBox="0 0 186 87" fill="none" xmlns="http://www.w3.org/2000/svg">
<path d="M88.6 36.25C87.3833 36.25 86.3167 36.025 85.4 35.575C84.4833 35.1083 83.7667 34.4667 83.25 33.65C82.75 32.8167 82.5 31.85 82.5 30.75V23C82.5 21.8833 82.75 20.9167 83.25 20.1C83.7667 19.2833 84.4833 18.65 85.4 18.2C86.3167 17.7333 87.3833 17.5 88.6 17.5C89.8333 17.5 90.9 17.7333 91.8 18.2C92.7167 18.65 93.425 19.2833 93.925 20.1C94.4417 20.9167 94.7 21.8833 94.7 23H90.95C90.95 22.2667 90.7417 21.7083 90.325 21.325C89.925 20.9417 89.35 20.75 88.6 20.75C87.85 20.75 87.2667 20.9417 86.85 21.325C86.45 21.7083 86.25 22.2667 86.25 23V30.75C86.25 31.4667 86.45 32.025 86.85 32.425C87.2667 32.8083 87.85 33 88.6 33C89.35 33 89.925 32.8083 90.325 32.425C90.7417 32.025 90.95 31.4667 90.95 30.75H94.7C94.7 31.85 94.4417 32.8167 93.925 33.65C93.425 34.4667 92.7167 35.1083 91.8 35.575C90.9 36.025 89.8333 36.25 88.6 36.25ZM96.6152 36L101.09 17.75H105.84L110.365 36H106.54L105.665 31.875H101.315L100.44 36H96.6152ZM101.94 28.875H105.015L104.14 24.475C104.024 23.8417 103.899 23.2167 103.765 22.6C103.649 21.9667 103.557 21.475 103.49 21.125C103.424 21.475 103.332 21.9583 103.215 22.575C103.115 23.1917 102.999 23.8167 102.865 24.45L101.94 28.875ZM112.605 36V17.75H118.48C119.78 17.75 120.905 17.975 121.855 18.425C122.805 18.875 123.539 19.5167 124.055 20.35C124.589 21.1833 124.855 22.1667 124.855 23.3C124.855 24.4833 124.564 25.5417 123.98 26.475C123.414 27.4083 122.639 28.0833 121.655 28.5L125.105 36H121.03L118.08 29.1H116.33V36H112.605ZM116.33 25.85H118.48C119.314 25.85 119.955 25.6417 120.405 25.225C120.872 24.8083 121.105 24.225 121.105 23.475C121.105 22.6917 120.872 22.0833 120.405 21.65C119.955 21.2167 119.314 21 118.48 21H116.33V25.85ZM127.971 36V17.75H139.221V20.95H131.646V25.05H138.346V28.25H131.646V32.8H139.221V36H127.971ZM142.961 36V17.75H154.211V20.95H146.636V25.05H153.336V28.25H146.636V32.8H154.211V36H142.961ZM157.576 36V17.75H163.451C164.751 17.75 165.876 17.975 166.826 18.425C167.776 18.875 168.51 19.5167 169.026 20.35C169.56 21.1833 169.826 22.1667 169.826 23.3C169.826 24.4833 169.535 25.5417 168.951 26.475C168.385 27.4083 167.61 28.0833 166.626 28.5L170.076 36H166.001L163.051 29.1H161.301V36H157.576ZM161.301 25.85H163.451C164.285 25.85 164.926 25.6417 165.376 25.225C165.843 24.8083 166.076 24.225 166.076 23.475C166.076 22.6917 165.843 22.0833 165.376 21.65C164.926 21.2167 164.285 21 163.451 21H161.301V25.85ZM88.6 69.25C87.3833 69.25 86.3167 69.025 85.4 68.575C84.4833 68.1083 83.7667 67.4667 83.25 66.65C82.75 65.8167 82.5 64.85 82.5 63.75V56C82.5 54.8833 82.75 53.9167 83.25 53.1C83.7667 52.2833 84.4833 51.65 85.4 51.2C86.3167 50.7333 87.3833 50.5 88.6 50.5C89.8333 50.5 90.9 50.7333 91.8 51.2C92.7167 51.65 93.425 52.2833 93.925 53.1C94.4417 53.9167 94.7 54.8833 94.7 56H90.95C90.95 55.2667 90.7417 54.7083 90.325 54.325C89.925 53.9417 89.35 53.75 88.6 53.75C87.85 53.75 87.2667 53.9417 86.85 54.325C86.45 54.7083 86.25 55.2667 86.25 56V63.75C86.25 64.4667 86.45 65.025 86.85 65.425C87.2667 65.8083 87.85 66 88.6 66C89.35 66 89.925 65.8083 90.325 65.425C90.7417 65.025 90.95 64.4667 90.95 63.75H94.7C94.7 64.85 94.4417 65.8167 93.925 66.65C93.425 67.4667 92.7167 68.1083 91.8 68.575C90.9 69.025 89.8333 69.25 88.6 69.25ZM103.49 69.25C102.274 69.25 101.215 69.025 100.315 68.575C99.4152 68.1083 98.7152 67.4667 98.2152 66.65C97.7319 65.8167 97.4902 64.85 97.4902 63.75V56C97.4902 54.9 97.7319 53.9417 98.2152 53.125C98.7152 52.2917 99.4152 51.65 100.315 51.2C101.215 50.7333 102.274 50.5 103.49 50.5C104.724 50.5 105.782 50.7333 106.665 51.2C107.565 51.65 108.257 52.2917 108.74 53.125C109.24 53.9417 109.49 54.9 109.49 56V63.75C109.49 64.85 109.24 65.8167 108.74 66.65C108.257 67.4667 107.565 68.1083 106.665 68.575C105.782 69.025 104.724 69.25 103.49 69.25ZM103.49 66C104.24 66 104.799 65.8083 105.165 65.425C105.549 65.025 105.74 64.4667 105.74 63.75V56C105.74 55.2667 105.557 54.7083 105.19 54.325C104.824 53.9417 104.257 53.75 103.49 53.75C102.724 53.75 102.157 53.9417 101.79 54.325C101.424 54.7083 101.24 55.2667 101.24 56V63.75C101.24 64.4667 101.424 65.025 101.79 65.425C102.174 65.8083 102.74 66 103.49 66ZM112.03 69V50.75H116.255L117.93 56.5C118.114 57.1 118.247 57.625 118.33 58.075C118.43 58.525 118.489 58.8417 118.505 59.025C118.522 58.8417 118.572 58.525 118.655 58.075C118.755 57.625 118.889 57.1 119.055 56.5L120.705 50.75H124.93V69H121.505V64C121.505 63.0833 121.522 62.125 121.555 61.125C121.605 60.1083 121.664 59.1 121.73 58.1C121.797 57.1 121.872 56.1667 121.955 55.3C122.039 54.4167 122.114 53.65 122.18 53L120.08 61.25H116.905L114.705 53C114.789 53.6167 114.872 54.3583 114.955 55.225C115.039 56.075 115.114 57 115.18 58C115.264 58.9833 115.33 59.9917 115.38 61.025C115.43 62.0583 115.455 63.05 115.455 64V69H112.03ZM127.621 69V50.75H133.846C135.129 50.75 136.246 50.9917 137.196 51.475C138.162 51.9583 138.904 52.6333 139.421 53.5C139.954 54.3667 140.221 55.3833 140.221 56.55C140.221 57.7 139.954 58.7167 139.421 59.6C138.887 60.4667 138.146 61.1417 137.196 61.625C136.246 62.1083 135.129 62.35 133.846 62.35H131.371V69H127.621ZM131.371 58.975H133.846C134.646 58.975 135.279 58.7583 135.746 58.325C136.229 57.875 136.471 57.2833 136.471 56.55C136.471 55.8167 136.229 55.2333 135.746 54.8C135.279 54.35 134.646 54.125 133.846 54.125H131.371V58.975ZM141.586 69L146.061 50.75H150.811L155.336 69H151.511L150.636 64.875H146.286L145.411 69H141.586ZM146.911 61.875H149.986L149.111 57.475C148.994 56.8417 148.869 56.2167 148.736 55.6C148.619 54.9667 148.528 54.475 148.461 54.125C148.394 54.475 148.303 54.9583 148.186 55.575C148.086 56.1917 147.969 56.8167 147.836 57.45L146.911 61.875ZM163.451 69.25C162.168 69.25 161.051 69.0333 160.101 68.6C159.151 68.1667 158.418 67.5583 157.901 66.775C157.385 65.9917 157.126 65.0667 157.126 64H160.876C160.876 64.6167 161.11 65.1083 161.576 65.475C162.06 65.825 162.71 66 163.526 66C164.31 66 164.918 65.825 165.351 65.475C165.801 65.125 166.026 64.6417 166.026 64.025C166.026 63.4917 165.86 63.0333 165.526 62.65C165.193 62.2667 164.726 62.0083 164.126 61.875L162.276 61.45C160.726 61.0833 159.518 60.4083 158.651 59.425C157.801 58.425 157.376 57.2083 157.376 55.775C157.376 54.7083 157.618 53.7833 158.101 53C158.601 52.2 159.301 51.5833 160.201 51.15C161.101 50.7167 162.168 50.5 163.401 50.5C165.268 50.5 166.743 50.9667 167.826 51.9C168.926 52.8167 169.476 54.0583 169.476 55.625H165.726C165.726 55.0417 165.518 54.5833 165.101 54.25C164.701 53.9167 164.118 53.75 163.351 53.75C162.635 53.75 162.085 53.9167 161.701 54.25C161.318 54.5667 161.126 55.025 161.126 55.625C161.126 56.1583 161.276 56.6167 161.576 57C161.893 57.3667 162.335 57.6167 162.901 57.75L164.851 58.2C166.468 58.5667 167.693 59.2333 168.526 60.2C169.36 61.15 169.776 62.3667 169.776 63.85C169.776 64.9167 169.51 65.8583 168.976 66.675C168.46 67.4917 167.726 68.125 166.776 68.575C165.843 69.025 164.735 69.25 163.451 69.25ZM178.441 69.25C177.158 69.25 176.041 69.0333 175.091 68.6C174.141 68.1667 173.408 67.5583 172.891 66.775C172.375 65.9917 172.116 65.0667 172.116 64H175.866C175.866 64.6167 176.1 65.1083 176.566 65.475C177.05 65.825 177.7 66 178.516 66C179.3 66 179.908 65.825 180.341 65.475C180.791 65.125 181.016 64.6417 181.016 64.025C181.016 63.4917 180.85 63.0333 180.516 62.65C180.183 62.2667 179.716 62.0083 179.116 61.875L177.266 61.45C175.716 61.0833 174.508 60.4083 173.641 59.425C172.791 58.425 172.366 57.2083 172.366 55.775C172.366 54.7083 172.608 53.7833 173.091 53C173.591 52.2 174.291 51.5833 175.191 51.15C176.091 50.7167 177.158 50.5 178.391 50.5C180.258 50.5 181.733 50.9667 182.816 51.9C183.916 52.8167 184.466 54.0583 184.466 55.625H180.716C180.716 55.0417 180.508 54.5833 180.091 54.25C179.691 53.9167 179.108 53.75 178.341 53.75C177.625 53.75 177.075 53.9167 176.691 54.25C176.308 54.5667 176.116 55.025 176.116 55.625C176.116 56.1583 176.266 56.6167 176.566 57C176.883 57.3667 177.325 57.6167 177.891 57.75L179.841 58.2C181.458 58.5667 182.683 59.2333 183.516 60.2C184.35 61.15 184.766 62.3667 184.766 63.85C184.766 64.9167 184.5 65.8583 183.966 66.675C183.45 67.4917 182.716 68.125 181.766 68.575C180.833 69.025 179.725 69.25 178.441 69.25Z" fill="black"/>
<circle cx="43.4654" cy="43.3964" r="14.2351" fill="#0A0A0A"/>
<path fill-rule="evenodd" clip-rule="evenodd" d="M43.4654 67.8586C56.8992 67.8586 67.7894 56.9684 67.7894 43.5346C67.7894 30.1007 56.8992 19.2105 43.4654 19.2105C30.0316 19.2105 19.1413 30.1007 19.1413 43.5346C19.1413 56.9684 30.0316 67.8586 43.4654 67.8586ZM43.4654 63.1056C54.2742 63.1056 63.0365 54.3433 63.0365 43.5345C63.0365 32.7257 54.2742 23.9634 43.4654 23.9634C32.6566 23.9634 23.8943 32.7257 23.8943 43.5345C23.8943 54.3433 32.6566 63.1056 43.4654 63.1056Z" fill="#0A0A0A"/>
<path fill-rule="evenodd" clip-rule="evenodd" d="M51.2858 38.7322C51.7431 39.1908 52 39.8127 52 40.4612V47.7969C52 48.118 51.9369 48.436 51.8144 48.7327C51.6918 49.0293 51.5122 49.2989 51.2858 49.5259C51.0593 49.753 50.7905 49.9331 50.4947 50.056C50.1988 50.1789 49.8818 50.2421 49.5615 50.2421H37.3693C37.0491 50.2421 36.732 50.1789 36.4362 50.056C36.1404 49.9331 35.8715 49.753 35.6451 49.5259C35.4187 49.2989 35.2391 49.0293 35.1165 48.7327C34.994 48.436 34.9309 48.118 34.9309 47.7969V40.4612C34.9309 39.8127 35.1878 39.1908 35.6451 38.7322C36.1024 38.2736 36.7226 38.016 37.3693 38.016H40.2613V37.2629C40.2613 36.7441 40.4669 36.2465 40.8327 35.8797C41.1985 35.5128 41.6947 35.3067 42.2121 35.3067H44.7188C45.2362 35.3067 45.7324 35.5128 46.0982 35.8797C46.464 36.2465 46.6695 36.7441 46.6695 37.2629V38.016H49.5615C50.2083 38.016 50.8285 38.2736 51.2858 38.7322ZM41.5224 36.5713C41.3395 36.7547 41.2367 37.0035 41.2367 37.2629V38.016H45.6942V37.2629C45.6942 37.0035 45.5914 36.7547 45.4085 36.5713C45.2256 36.3878 44.9775 36.2848 44.7188 36.2848H42.2121C41.9534 36.2848 41.7053 36.3878 41.5224 36.5713Z" fill="#F4CE14"/>
<path fill-rule="evenodd" clip-rule="evenodd" d="M51.2858 38.7322C51.2858 38.7322 52 39.3278 52 40.4612V47.7969C52 48.118 51.9369 48.436 51.8144 48.7327C51.6918 49.0293 51.5122 49.2989 51.2858 49.5259C51.0593 49.753 50.7905 49.9331 50.4947 50.056C50.1988 50.1789 49.8818 50.2421 49.5615 50.2421H37.3693C37.0491 50.2421 36.732 50.1789 36.4362 50.056C35.9296 49.8456 35.6451 49.5259 35.6451 49.5259L51.2858 38.7322Z" fill="#F49A14"/>
<path d="M43.4486 7.96356V27.27C43.4486 27.27 42.2518 27.2503 41.3947 27.3727C40.5377 27.4952 39.2382 27.7835 39.2382 27.7835L43.4486 7.96356Z" fill="#F4CE14"/>
<path d="M43.4485 7.96356V27.27C43.4485 27.27 44.6454 27.2503 45.5024 27.3727C46.3595 27.4952 47.659 27.7835 47.659 27.7835L43.4485 7.96356Z" fill="#F49A14"/>
<path d="M43.5513 79.0364V59.73C43.5513 59.73 42.3545 59.7497 41.4975 59.6273C40.6404 59.5048 39.3409 59.2165 39.3409 59.2165L43.5513 79.0364Z" fill="#F4CE14"/>
<path d="M43.5514 79.0364V59.73C43.5514 59.73 44.7482 59.7497 45.6053 59.6273C46.4623 59.5048 47.7618 59.2165 47.7618 59.2165L43.5514 79.0364Z" fill="#F49A14"/>
<path d="M7.86084 43.4486L27.1673 43.4486C27.1673 43.4486 27.1476 42.2518 27.27 41.3948C27.3925 40.5377 27.6808 39.2382 27.6808 39.2382L7.86084 43.4486Z" fill="#F4CE14"/>
<path d="M7.86084 43.4487L27.1673 43.4487C27.1673 43.4487 27.1476 44.6455 27.27 45.5025C27.3925 46.3596 27.6808 47.6591 27.6808 47.6591L7.86084 43.4487Z" fill="#F49A14"/>
<path d="M79.1392 43.4486L59.8327 43.4486C59.8327 43.4486 59.8525 42.2518 59.73 41.3948C59.6076 40.5377 59.3193 39.2382 59.3193 39.2382L79.1392 43.4486Z" fill="#F4CE14"/>
<path d="M79.1392 43.4487L59.8327 43.4487C59.8327 43.4487 59.8524 44.6455 59.73 45.5025C59.6075 46.3596 59.3192 47.6591 59.3192 47.6591L79.1392 43.4487Z" fill="#F49A14"/>
<path d="M65.1895 21.75L53.8312 33.1083C53.8312 33.1083 53.1387 32.3926 52.5625 31.9604C51.9862 31.5282 51.052 30.9333 51.052 30.9333L65.1895 21.75Z" fill="#F4CE14"/>
<path d="M65.1895 21.75L53.8312 33.1083C53.8312 33.1083 54.5469 33.8008 54.9791 34.3771C55.4113 34.9533 56.0062 35.8875 56.0062 35.8875L65.1895 21.75Z" fill="#F49A14"/>
<path d="M21.8105 65.25L33.1688 53.8917C33.1688 53.8917 32.4531 53.1992 32.0209 52.6229C31.5887 52.0467 30.9938 51.1125 30.9938 51.1125L21.8105 65.25Z" fill="#F4CE14"/>
<path d="M21.8103 65.25L33.1687 53.8916C33.1687 53.8916 33.8612 54.6074 34.4374 55.0396C35.0137 55.4717 35.9478 56.0666 35.9478 56.0666L21.8103 65.25Z" fill="#F49A14"/>
<path d="M21.75 21.6896L33.1084 33.0479C33.1084 33.0479 33.8009 32.3322 34.3771 31.9C34.9533 31.4678 35.8875 30.8729 35.8875 30.8729L21.75 21.6896Z" fill="#F4CE14"/>
<path d="M21.75 21.6896L33.1083 33.0479C33.1083 33.0479 32.3926 33.7404 31.9604 34.3167C31.5282 34.8929 30.9333 35.8271 30.9333 35.8271L21.75 21.6896Z" fill="#F49A14"/>
<path d="M65.3105 65.25L53.9521 53.8917C53.9521 53.8917 54.6679 53.1992 55.1 52.6229C55.5322 52.0467 56.1271 51.1125 56.1271 51.1125L65.3105 65.25Z" fill="#F4CE14"/>
<path d="M65.3105 65.25L53.9521 53.8916C53.9521 53.8916 53.2596 54.6074 52.6834 55.0396C52.1071 55.4717 51.173 56.0666 51.173 56.0666L65.3105 65.25Z" fill="#F49A14"/>
<path fill-rule="evenodd" clip-rule="evenodd" d="M43.4655 60.672C52.9302 60.672 60.6029 52.9993 60.6029 43.5346C60.6029 34.0698 52.9302 26.3972 43.4655 26.3972C34.0007 26.3972 26.3281 34.0698 26.3281 43.5346C26.3281 52.9993 34.0007 60.672 43.4655 60.672ZM43.4654 57.3233C51.0807 57.3233 57.2541 51.1499 57.2541 43.5346C57.2541 35.9193 51.0807 29.7458 43.4654 29.7458C35.8501 29.7458 29.6767 35.9193 29.6767 43.5346C29.6767 51.1499 35.8501 57.3233 43.4654 57.3233Z" fill="url(#paint0_linear_12_5656)"/>
<defs>
<linearGradient id="paint0_linear_12_5656" x1="29.1843" y1="28.8594" x2="58.4361" y2="60.672" gradientUnits="userSpaceOnUse">
<stop stop-color="#F4CE14"/>
<stop offset="1" stop-color="#F49A14"/>
</linearGradient>
</defs>
</svg>
