<svg width="42" height="34" viewBox="0 0 42 34" fill="none" xmlns="http://www.w3.org/2000/svg">
<path fill-rule="evenodd" clip-rule="evenodd" d="M25.3433 0.83868C26.5583 1.2432 27.1658 2.25448 27.1658 3.46803L19.4708 31.7841C19.0658 32.5932 18.2558 33.1999 17.4458 33.1999H16.8383C15.6233 32.7954 15.0158 31.7841 15.2183 30.5706L22.9133 2.25448C23.1158 1.2432 24.3308 0.636422 25.3433 0.83868ZM32.6333 7.51319L40.7333 15.6035C41.5433 16.4125 41.5433 17.6261 40.7333 18.4351L32.6333 26.5254C32.2283 26.9299 31.6208 27.1322 31.2158 27.1322C30.8108 27.1322 30.2033 26.9299 29.7983 26.5254C28.9883 25.7164 28.9883 24.5028 29.7983 23.6938L36.4808 17.0193L29.7983 10.3448C28.9883 9.53577 28.9883 8.32222 29.7983 7.51319C30.6083 6.70416 31.8233 6.70416 32.6333 7.51319ZM12.3833 7.51319C13.1933 8.32222 13.1933 9.53577 12.3833 10.3448L5.70085 17.0193L12.3833 23.6938C13.1933 24.5028 13.1933 25.7164 12.3833 26.5254C11.9783 26.9299 11.5733 27.1322 10.9658 27.1322C10.3583 27.1322 9.95335 26.9299 9.54834 26.5254L1.44835 18.4351C0.638345 17.6261 0.638345 16.4125 1.44835 15.6035L9.54834 7.51319C10.3583 6.70416 11.5733 6.70416 12.3833 7.51319Z" fill="black"/>
</svg>
