<svg width="717" height="716" viewBox="0 0 717 716" fill="none" xmlns="http://www.w3.org/2000/svg">
<circle cx="358.152" cy="356.699" r="143.169" fill="#0A0A0A"/>
<path fill-rule="evenodd" clip-rule="evenodd" d="M358.152 602.728C493.262 602.728 602.791 493.199 602.791 358.089C602.791 222.979 493.262 113.45 358.152 113.45C223.042 113.45 113.513 222.979 113.513 358.089C113.513 493.199 223.042 602.728 358.152 602.728ZM358.153 554.924C466.862 554.924 554.988 466.798 554.988 358.089C554.988 249.379 466.862 161.253 358.153 161.253C249.443 161.253 161.317 249.379 161.317 358.089C161.317 466.798 249.443 554.924 358.153 554.924Z" fill="#0A0A0A"/>
<path fill-rule="evenodd" clip-rule="evenodd" d="M436.805 309.79C441.405 314.402 443.988 320.657 443.988 327.18V400.958C443.988 404.188 443.354 407.386 442.122 410.369C440.889 413.353 439.083 416.064 436.805 418.348C434.528 420.631 431.825 422.443 428.849 423.679C425.874 424.915 422.685 425.551 419.464 425.551H296.841C293.621 425.551 290.432 424.915 287.456 423.679C284.481 422.443 281.777 420.631 279.5 418.348C277.223 416.064 275.416 413.353 274.184 410.369C272.951 407.386 272.317 404.188 272.317 400.958V327.18C272.317 320.657 274.901 314.402 279.5 309.79C284.099 305.178 290.337 302.587 296.841 302.587H325.927V295.012C325.927 289.794 327.995 284.79 331.674 281.101C335.353 277.411 340.344 275.338 345.547 275.338H370.758C375.962 275.338 380.952 277.411 384.631 281.101C388.311 284.79 390.378 289.794 390.378 295.012V302.587H419.464C425.968 302.587 432.206 305.178 436.805 309.79ZM338.611 288.056C336.771 289.901 335.737 292.403 335.737 295.012V302.587H380.568V295.012C380.568 292.403 379.535 289.901 377.695 288.056C375.855 286.212 373.36 285.175 370.758 285.175H345.547C342.945 285.175 340.45 286.212 338.611 288.056Z" fill="#F4CE14"/>
<path fill-rule="evenodd" clip-rule="evenodd" d="M436.805 309.79C436.805 309.79 443.988 315.78 443.988 327.18V400.958C443.988 404.188 443.354 407.386 442.122 410.369C440.889 413.353 439.083 416.064 436.805 418.348C434.528 420.631 431.825 422.443 428.849 423.679C425.874 424.915 422.685 425.551 419.464 425.551H296.841C293.621 425.551 290.432 424.915 287.456 423.679C282.361 421.563 279.5 418.348 279.5 418.348L436.805 309.79Z" fill="#F49A14"/>
<path d="M357.983 0.334839V194.509C357.983 194.509 345.946 194.311 337.327 195.542C328.707 196.773 315.637 199.673 315.637 199.673L357.983 0.334839Z" fill="#F4CE14"/>
<path d="M357.983 0.334839V194.509C357.983 194.509 370.02 194.311 378.639 195.542C387.259 196.773 400.329 199.673 400.329 199.673L357.983 0.334839Z" fill="#F49A14"/>
<path d="M359.017 715.149V520.975C359.017 520.975 346.98 521.174 338.36 519.942C329.741 518.711 316.671 515.811 316.671 515.811L359.017 715.149Z" fill="#F4CE14"/>
<path d="M359.018 715.15V520.975C359.018 520.975 371.055 521.174 379.675 519.942C388.294 518.711 401.364 515.811 401.364 515.811L359.018 715.15Z" fill="#F49A14"/>
<path d="M0.0598126 357.225L194.234 357.225C194.234 357.225 194.036 345.188 195.267 336.568C196.498 327.949 199.398 314.879 199.398 314.879L0.0598126 357.225Z" fill="#F4CE14"/>
<path d="M0.0598163 357.226L194.234 357.226C194.234 357.226 194.036 369.263 195.267 377.883C196.498 386.502 199.398 399.572 199.398 399.572L0.0598163 357.226Z" fill="#F49A14"/>
<path d="M716.942 357.226L522.767 357.226C522.767 357.226 522.966 345.188 521.734 336.569C520.503 327.949 517.603 314.879 517.603 314.879L716.942 357.226Z" fill="#F4CE14"/>
<path d="M716.941 357.226L522.767 357.226C522.767 357.226 522.965 369.263 521.734 377.883C520.502 386.502 517.602 399.572 517.602 399.572L716.941 357.226Z" fill="#F49A14"/>
<path d="M577.126 138.991L462.89 253.227C462.89 253.227 455.925 246.029 450.13 241.682C444.334 237.336 434.939 231.353 434.939 231.353L577.126 138.991Z" fill="#F4CE14"/>
<path d="M577.126 138.991L462.89 253.228C462.89 253.228 470.089 260.192 474.435 265.988C478.782 271.783 484.765 281.179 484.765 281.179L577.126 138.991Z" fill="#F49A14"/>
<path d="M140.358 576.493L254.594 462.257C254.594 462.257 247.396 455.292 243.049 449.496C238.702 443.701 232.719 434.305 232.719 434.305L140.358 576.493Z" fill="#F4CE14"/>
<path d="M140.357 576.492L254.594 462.256C254.594 462.256 261.558 469.455 267.354 473.801C273.149 478.148 282.545 484.131 282.545 484.131L140.357 576.492Z" fill="#F49A14"/>
<path d="M139.752 138.384L253.988 252.62C253.988 252.62 260.952 245.422 266.748 241.075C272.543 236.728 281.939 230.745 281.939 230.745L139.752 138.384Z" fill="#F4CE14"/>
<path d="M139.751 138.384L253.987 252.62C253.987 252.62 246.788 259.585 242.442 265.38C238.095 271.176 232.112 280.571 232.112 280.571L139.751 138.384Z" fill="#F49A14"/>
<path d="M577.733 576.492L463.497 462.256C463.497 462.256 470.695 455.291 475.042 449.496C479.388 443.7 485.371 434.305 485.371 434.305L577.733 576.492Z" fill="#F4CE14"/>
<path d="M577.732 576.492L463.496 462.256C463.496 462.256 456.531 469.455 450.736 473.801C444.94 478.148 435.545 484.131 435.545 484.131L577.732 576.492Z" fill="#F49A14"/>
<path fill-rule="evenodd" clip-rule="evenodd" d="M358.152 530.448C453.343 530.448 530.511 453.28 530.511 358.089C530.511 262.898 453.343 185.73 358.152 185.73C262.961 185.73 185.793 262.898 185.793 358.089C185.793 453.28 262.961 530.448 358.152 530.448ZM358.151 496.769C434.742 496.769 496.831 434.68 496.831 358.089C496.831 281.498 434.742 219.409 358.151 219.409C281.561 219.409 219.472 281.498 219.472 358.089C219.472 434.68 281.561 496.769 358.151 496.769Z" fill="url(#paint0_linear_70_325)"/>
<defs>
<linearGradient id="paint0_linear_70_325" x1="214.519" y1="210.494" x2="508.718" y2="530.448" gradientUnits="userSpaceOnUse">
<stop stop-color="#F4CE14"/>
<stop offset="1" stop-color="#F49A14"/>
</linearGradient>
</defs>
</svg>
