<svg width="27" height="42" viewBox="0 0 27 42" fill="none" xmlns="http://www.w3.org/2000/svg">
<path d="M22.2909 41.6182H4.61813C3.44636 41.6182 2.32258 41.1527 1.49401 40.3241C0.665437 39.4956 0.199951 38.3718 0.199951 37.2V4.80002C0.199951 3.62824 0.665437 2.50446 1.49401 1.67589C2.32258 0.847322 3.44636 0.381836 4.61813 0.381836H22.2909C23.4626 0.381836 24.5864 0.847322 25.415 1.67589C26.2436 2.50446 26.709 3.62824 26.709 4.80002V37.2C26.709 38.3718 26.2436 39.4956 25.415 40.3241C24.5864 41.1527 23.4626 41.6182 22.2909 41.6182ZM4.61813 3.32729C4.22754 3.32729 3.85295 3.48245 3.57676 3.75864C3.30057 4.03483 3.14541 4.40943 3.14541 4.80002V37.2C3.14541 37.5906 3.30057 37.9652 3.57676 38.2414C3.85295 38.5176 4.22754 38.6727 4.61813 38.6727H22.2909C22.6815 38.6727 23.056 38.5176 23.3322 38.2414C23.6084 37.9652 23.7636 37.5906 23.7636 37.2V4.80002C23.7636 4.40943 23.6084 4.03483 23.3322 3.75864C23.056 3.48245 22.6815 3.32729 22.2909 3.32729H4.61813Z" fill="black"/>
<path d="M16.4 37.2H10.509C10.1185 37.2 9.74386 37.0449 9.46767 36.7687C9.19148 36.4925 9.03631 36.1179 9.03631 35.7273C9.03631 35.3367 9.19148 34.9621 9.46767 34.6859C9.74386 34.4097 10.1185 34.2546 10.509 34.2546H16.4C16.7905 34.2546 17.1651 34.4097 17.4413 34.6859C17.7175 34.9621 17.8727 35.3367 17.8727 35.7273C17.8727 36.1179 17.7175 36.4925 17.4413 36.7687C17.1651 37.0449 16.7905 37.2 16.4 37.2Z" fill="black"/>
<path d="M17.8726 6.27269H9.03627C8.7643 6.27186 8.49788 6.19575 8.26652 6.05278C8.03517 5.90981 7.84792 5.70556 7.72554 5.46269L6.48845 2.98851C6.39524 2.8147 6.33789 2.62394 6.31981 2.42755C6.30172 2.23116 6.32327 2.03314 6.38316 1.84523C6.44306 1.65732 6.54009 1.48336 6.66849 1.33366C6.79689 1.18397 6.95406 1.06159 7.13066 0.973781C7.30725 0.885975 7.49969 0.834535 7.69654 0.822511C7.8934 0.810487 8.09066 0.838124 8.27664 0.903784C8.46261 0.969444 8.6335 1.07179 8.77916 1.20474C8.92483 1.3377 9.04231 1.49856 9.12463 1.67778L9.94936 3.32723H16.9595L17.7843 1.67778C17.8666 1.49856 17.9841 1.3377 18.1297 1.20474C18.2754 1.07179 18.4463 0.969444 18.6323 0.903784C18.8182 0.838124 19.0155 0.810487 19.2124 0.822511C19.4092 0.834535 19.6016 0.885975 19.7782 0.973781C19.9548 1.06159 20.112 1.18397 20.2404 1.33366C20.3688 1.48336 20.4658 1.65732 20.5257 1.84523C20.5856 2.03314 20.6072 2.23116 20.5891 2.42755C20.571 2.62394 20.5137 2.8147 20.4204 2.98851L19.1834 5.46269C19.061 5.70556 18.8737 5.90981 18.6424 6.05278C18.411 6.19575 18.1446 6.27186 17.8726 6.27269Z" fill="black"/>
</svg>
